<mxfile host="app.diagrams.net" modified="2021-09-13T21:52:38.314Z" agent="5.0 (Macintosh; Intel Mac OS X 10_15_7) AppleWebKit/605.1.15 (KHTML, like Gecko) Version/14.1.2 Safari/605.1.15" etag="2UQIe2Iki4kWtyZH1q-W" version="15.2.5" type="gitlab">
  <diagram id="C5RBs43oDa-KdzZeNtuy" name="Page-1">
    <mxGraphModel dx="3213" dy="1365" grid="1" gridSize="10" guides="1" tooltips="1" connect="1" arrows="1" fold="1" page="1" pageScale="1" pageWidth="827" pageHeight="1169" math="0" shadow="0">
      <root>
        <mxCell id="WIyWlLk6GJQsqaUBKTNV-0" />
        <mxCell id="WIyWlLk6GJQsqaUBKTNV-1" parent="WIyWlLk6GJQsqaUBKTNV-0" />
        <mxCell id="0WDkK49skDrCXc-47FKA-4" style="edgeStyle=orthogonalEdgeStyle;rounded=0;orthogonalLoop=1;jettySize=auto;html=1;" edge="1" parent="WIyWlLk6GJQsqaUBKTNV-1" source="WIyWlLk6GJQsqaUBKTNV-3" target="0WDkK49skDrCXc-47FKA-1">
          <mxGeometry relative="1" as="geometry" />
        </mxCell>
        <mxCell id="WIyWlLk6GJQsqaUBKTNV-3" value="Start" style="rounded=1;whiteSpace=wrap;html=1;fontSize=12;glass=0;strokeWidth=1;shadow=0;" parent="WIyWlLk6GJQsqaUBKTNV-1" vertex="1">
          <mxGeometry x="160" y="80" width="120" height="40" as="geometry" />
        </mxCell>
        <mxCell id="WIyWlLk6GJQsqaUBKTNV-4" value="Yes" style="rounded=0;html=1;jettySize=auto;orthogonalLoop=1;fontSize=11;endArrow=block;endFill=0;endSize=8;strokeWidth=1;shadow=0;labelBackgroundColor=none;edgeStyle=orthogonalEdgeStyle;" parent="WIyWlLk6GJQsqaUBKTNV-1" target="WIyWlLk6GJQsqaUBKTNV-10" edge="1">
          <mxGeometry y="20" relative="1" as="geometry">
            <mxPoint as="offset" />
            <mxPoint x="220" y="250" as="sourcePoint" />
          </mxGeometry>
        </mxCell>
        <mxCell id="WIyWlLk6GJQsqaUBKTNV-5" value="No" style="edgeStyle=orthogonalEdgeStyle;rounded=0;html=1;jettySize=auto;orthogonalLoop=1;fontSize=11;endArrow=block;endFill=0;endSize=8;strokeWidth=1;shadow=0;labelBackgroundColor=none;" parent="WIyWlLk6GJQsqaUBKTNV-1" target="WIyWlLk6GJQsqaUBKTNV-7" edge="1">
          <mxGeometry y="10" relative="1" as="geometry">
            <mxPoint as="offset" />
            <mxPoint x="270" y="210" as="sourcePoint" />
          </mxGeometry>
        </mxCell>
        <mxCell id="WIyWlLk6GJQsqaUBKTNV-8" value="No" style="rounded=0;html=1;jettySize=auto;orthogonalLoop=1;fontSize=11;endArrow=block;endFill=0;endSize=8;strokeWidth=1;shadow=0;labelBackgroundColor=none;edgeStyle=orthogonalEdgeStyle;" parent="WIyWlLk6GJQsqaUBKTNV-1" target="WIyWlLk6GJQsqaUBKTNV-11" edge="1">
          <mxGeometry x="0.3333" y="20" relative="1" as="geometry">
            <mxPoint as="offset" />
            <mxPoint x="220" y="370" as="sourcePoint" />
          </mxGeometry>
        </mxCell>
        <mxCell id="WIyWlLk6GJQsqaUBKTNV-9" value="Yes" style="edgeStyle=orthogonalEdgeStyle;rounded=0;html=1;jettySize=auto;orthogonalLoop=1;fontSize=11;endArrow=block;endFill=0;endSize=8;strokeWidth=1;shadow=0;labelBackgroundColor=none;" parent="WIyWlLk6GJQsqaUBKTNV-1" source="WIyWlLk6GJQsqaUBKTNV-10" edge="1">
          <mxGeometry y="10" relative="1" as="geometry">
            <mxPoint as="offset" />
            <mxPoint x="320" y="330" as="targetPoint" />
          </mxGeometry>
        </mxCell>
        <mxCell id="0WDkK49skDrCXc-47FKA-76" style="edgeStyle=none;rounded=0;orthogonalLoop=1;jettySize=auto;html=1;" edge="1" parent="WIyWlLk6GJQsqaUBKTNV-1" source="0WDkK49skDrCXc-47FKA-1" target="0WDkK49skDrCXc-47FKA-74">
          <mxGeometry relative="1" as="geometry" />
        </mxCell>
        <mxCell id="0WDkK49skDrCXc-47FKA-1" value="array = n elements" style="rounded=1;whiteSpace=wrap;html=1;" vertex="1" parent="WIyWlLk6GJQsqaUBKTNV-1">
          <mxGeometry x="160" y="170" width="120" height="60" as="geometry" />
        </mxCell>
        <mxCell id="0WDkK49skDrCXc-47FKA-6" style="edgeStyle=orthogonalEdgeStyle;rounded=0;orthogonalLoop=1;jettySize=auto;html=1;" edge="1" parent="WIyWlLk6GJQsqaUBKTNV-1" source="0WDkK49skDrCXc-47FKA-2" target="0WDkK49skDrCXc-47FKA-5">
          <mxGeometry relative="1" as="geometry">
            <Array as="points">
              <mxPoint x="220" y="520" />
              <mxPoint x="220" y="520" />
            </Array>
          </mxGeometry>
        </mxCell>
        <mxCell id="0WDkK49skDrCXc-47FKA-67" value="" style="edgeStyle=none;rounded=0;orthogonalLoop=1;jettySize=auto;html=1;" edge="1" parent="WIyWlLk6GJQsqaUBKTNV-1" source="0WDkK49skDrCXc-47FKA-2" target="0WDkK49skDrCXc-47FKA-66">
          <mxGeometry relative="1" as="geometry" />
        </mxCell>
        <mxCell id="0WDkK49skDrCXc-47FKA-2" value="i &amp;lt; array.length" style="rhombus;whiteSpace=wrap;html=1;" vertex="1" parent="WIyWlLk6GJQsqaUBKTNV-1">
          <mxGeometry x="125" y="370" width="190" height="130" as="geometry" />
        </mxCell>
        <mxCell id="0WDkK49skDrCXc-47FKA-72" style="edgeStyle=none;rounded=0;orthogonalLoop=1;jettySize=auto;html=1;" edge="1" parent="WIyWlLk6GJQsqaUBKTNV-1" source="0WDkK49skDrCXc-47FKA-5" target="0WDkK49skDrCXc-47FKA-71">
          <mxGeometry relative="1" as="geometry" />
        </mxCell>
        <mxCell id="0WDkK49skDrCXc-47FKA-5" value="min = i" style="rounded=0;whiteSpace=wrap;html=1;" vertex="1" parent="WIyWlLk6GJQsqaUBKTNV-1">
          <mxGeometry x="160" y="550" width="120" height="60" as="geometry" />
        </mxCell>
        <mxCell id="0WDkK49skDrCXc-47FKA-12" value="" style="edgeStyle=orthogonalEdgeStyle;rounded=0;orthogonalLoop=1;jettySize=auto;html=1;" edge="1" parent="WIyWlLk6GJQsqaUBKTNV-1" source="0WDkK49skDrCXc-47FKA-7" target="0WDkK49skDrCXc-47FKA-11">
          <mxGeometry relative="1" as="geometry" />
        </mxCell>
        <mxCell id="0WDkK49skDrCXc-47FKA-57" value="" style="edgeStyle=none;rounded=0;orthogonalLoop=1;jettySize=auto;html=1;" edge="1" parent="WIyWlLk6GJQsqaUBKTNV-1" source="0WDkK49skDrCXc-47FKA-7" target="0WDkK49skDrCXc-47FKA-56">
          <mxGeometry relative="1" as="geometry" />
        </mxCell>
        <mxCell id="0WDkK49skDrCXc-47FKA-7" value="x &amp;lt; array.length" style="rhombus;whiteSpace=wrap;html=1;rounded=0;" vertex="1" parent="WIyWlLk6GJQsqaUBKTNV-1">
          <mxGeometry x="135" y="770" width="170" height="115" as="geometry" />
        </mxCell>
        <mxCell id="0WDkK49skDrCXc-47FKA-46" style="rounded=0;orthogonalLoop=1;jettySize=auto;html=1;" edge="1" parent="WIyWlLk6GJQsqaUBKTNV-1" source="0WDkK49skDrCXc-47FKA-11" target="0WDkK49skDrCXc-47FKA-40">
          <mxGeometry relative="1" as="geometry" />
        </mxCell>
        <mxCell id="0WDkK49skDrCXc-47FKA-49" style="edgeStyle=none;rounded=0;orthogonalLoop=1;jettySize=auto;html=1;" edge="1" parent="WIyWlLk6GJQsqaUBKTNV-1" source="0WDkK49skDrCXc-47FKA-11" target="0WDkK49skDrCXc-47FKA-14">
          <mxGeometry relative="1" as="geometry" />
        </mxCell>
        <mxCell id="0WDkK49skDrCXc-47FKA-11" value="array[i] &amp;nbsp;&amp;gt; &amp;nbsp;array[x]" style="rhombus;whiteSpace=wrap;html=1;rounded=0;" vertex="1" parent="WIyWlLk6GJQsqaUBKTNV-1">
          <mxGeometry x="115" y="982.5" width="210" height="112.5" as="geometry" />
        </mxCell>
        <mxCell id="0WDkK49skDrCXc-47FKA-65" style="edgeStyle=none;rounded=0;orthogonalLoop=1;jettySize=auto;html=1;entryX=0.5;entryY=1;entryDx=0;entryDy=0;" edge="1" parent="WIyWlLk6GJQsqaUBKTNV-1" source="0WDkK49skDrCXc-47FKA-14" target="0WDkK49skDrCXc-47FKA-40">
          <mxGeometry relative="1" as="geometry">
            <Array as="points">
              <mxPoint x="474" y="1205" />
            </Array>
          </mxGeometry>
        </mxCell>
        <mxCell id="0WDkK49skDrCXc-47FKA-14" value="min = x" style="whiteSpace=wrap;html=1;rounded=0;" vertex="1" parent="WIyWlLk6GJQsqaUBKTNV-1">
          <mxGeometry x="160" y="1175" width="120" height="60" as="geometry" />
        </mxCell>
        <mxCell id="0WDkK49skDrCXc-47FKA-52" style="edgeStyle=none;rounded=0;orthogonalLoop=1;jettySize=auto;html=1;entryX=1;entryY=0.5;entryDx=0;entryDy=0;" edge="1" parent="WIyWlLk6GJQsqaUBKTNV-1" source="0WDkK49skDrCXc-47FKA-40" target="0WDkK49skDrCXc-47FKA-7">
          <mxGeometry relative="1" as="geometry">
            <mxPoint x="474" y="825" as="targetPoint" />
            <Array as="points">
              <mxPoint x="475" y="828" />
            </Array>
          </mxGeometry>
        </mxCell>
        <mxCell id="0WDkK49skDrCXc-47FKA-40" value="x = x + 1" style="rounded=0;whiteSpace=wrap;html=1;" vertex="1" parent="WIyWlLk6GJQsqaUBKTNV-1">
          <mxGeometry x="414" y="1008.75" width="120" height="60" as="geometry" />
        </mxCell>
        <mxCell id="0WDkK49skDrCXc-47FKA-47" value="FALSE" style="text;html=1;strokeColor=none;fillColor=none;align=center;verticalAlign=middle;whiteSpace=wrap;rounded=0;" vertex="1" parent="WIyWlLk6GJQsqaUBKTNV-1">
          <mxGeometry x="340" y="1015" width="40" height="20" as="geometry" />
        </mxCell>
        <mxCell id="0WDkK49skDrCXc-47FKA-53" value="TRUE" style="text;html=1;strokeColor=none;fillColor=none;align=center;verticalAlign=middle;whiteSpace=wrap;rounded=0;rotation=90;" vertex="1" parent="WIyWlLk6GJQsqaUBKTNV-1">
          <mxGeometry x="210" y="915" width="40" height="20" as="geometry" />
        </mxCell>
        <mxCell id="0WDkK49skDrCXc-47FKA-54" value="TRUE" style="text;html=1;strokeColor=none;fillColor=none;align=center;verticalAlign=middle;whiteSpace=wrap;rounded=0;rotation=90;" vertex="1" parent="WIyWlLk6GJQsqaUBKTNV-1">
          <mxGeometry x="205" y="1115" width="50" height="30" as="geometry" />
        </mxCell>
        <mxCell id="0WDkK49skDrCXc-47FKA-59" value="" style="edgeStyle=none;rounded=0;orthogonalLoop=1;jettySize=auto;html=1;" edge="1" parent="WIyWlLk6GJQsqaUBKTNV-1" source="0WDkK49skDrCXc-47FKA-56" target="0WDkK49skDrCXc-47FKA-58">
          <mxGeometry relative="1" as="geometry" />
        </mxCell>
        <mxCell id="0WDkK49skDrCXc-47FKA-56" value="tmp = array[i]" style="whiteSpace=wrap;html=1;rounded=0;" vertex="1" parent="WIyWlLk6GJQsqaUBKTNV-1">
          <mxGeometry x="-90" y="797.5" width="120" height="60" as="geometry" />
        </mxCell>
        <mxCell id="0WDkK49skDrCXc-47FKA-62" value="" style="edgeStyle=none;rounded=0;orthogonalLoop=1;jettySize=auto;html=1;" edge="1" parent="WIyWlLk6GJQsqaUBKTNV-1" source="0WDkK49skDrCXc-47FKA-58" target="0WDkK49skDrCXc-47FKA-61">
          <mxGeometry relative="1" as="geometry" />
        </mxCell>
        <mxCell id="0WDkK49skDrCXc-47FKA-58" value="array[i] = array[min]&amp;nbsp;" style="whiteSpace=wrap;html=1;rounded=0;" vertex="1" parent="WIyWlLk6GJQsqaUBKTNV-1">
          <mxGeometry x="-90" y="865" width="120" height="60" as="geometry" />
        </mxCell>
        <mxCell id="0WDkK49skDrCXc-47FKA-69" style="edgeStyle=none;rounded=0;orthogonalLoop=1;jettySize=auto;html=1;" edge="1" parent="WIyWlLk6GJQsqaUBKTNV-1" source="0WDkK49skDrCXc-47FKA-61" target="0WDkK49skDrCXc-47FKA-68">
          <mxGeometry relative="1" as="geometry">
            <Array as="points">
              <mxPoint x="-200" y="965" />
            </Array>
          </mxGeometry>
        </mxCell>
        <mxCell id="0WDkK49skDrCXc-47FKA-61" value="array[min] = tmp" style="whiteSpace=wrap;html=1;rounded=0;" vertex="1" parent="WIyWlLk6GJQsqaUBKTNV-1">
          <mxGeometry x="-90" y="935" width="120" height="60" as="geometry" />
        </mxCell>
        <mxCell id="0WDkK49skDrCXc-47FKA-66" value="END" style="ellipse;whiteSpace=wrap;html=1;" vertex="1" parent="WIyWlLk6GJQsqaUBKTNV-1">
          <mxGeometry x="440" y="405" width="120" height="60" as="geometry" />
        </mxCell>
        <mxCell id="0WDkK49skDrCXc-47FKA-70" style="edgeStyle=none;rounded=0;orthogonalLoop=1;jettySize=auto;html=1;entryX=0;entryY=0.5;entryDx=0;entryDy=0;" edge="1" parent="WIyWlLk6GJQsqaUBKTNV-1" source="0WDkK49skDrCXc-47FKA-68" target="0WDkK49skDrCXc-47FKA-2">
          <mxGeometry relative="1" as="geometry">
            <Array as="points">
              <mxPoint x="-200" y="435" />
              <mxPoint x="-30" y="435" />
            </Array>
          </mxGeometry>
        </mxCell>
        <mxCell id="0WDkK49skDrCXc-47FKA-68" value="i = i + 1&lt;br&gt;" style="rounded=0;whiteSpace=wrap;html=1;" vertex="1" parent="WIyWlLk6GJQsqaUBKTNV-1">
          <mxGeometry x="-260" y="490" width="120" height="60" as="geometry" />
        </mxCell>
        <mxCell id="0WDkK49skDrCXc-47FKA-73" style="edgeStyle=none;rounded=0;orthogonalLoop=1;jettySize=auto;html=1;" edge="1" parent="WIyWlLk6GJQsqaUBKTNV-1" source="0WDkK49skDrCXc-47FKA-71" target="0WDkK49skDrCXc-47FKA-7">
          <mxGeometry relative="1" as="geometry" />
        </mxCell>
        <mxCell id="0WDkK49skDrCXc-47FKA-71" value="x = 0" style="rounded=0;whiteSpace=wrap;html=1;" vertex="1" parent="WIyWlLk6GJQsqaUBKTNV-1">
          <mxGeometry x="160" y="670" width="120" height="60" as="geometry" />
        </mxCell>
        <mxCell id="0WDkK49skDrCXc-47FKA-77" style="edgeStyle=none;rounded=0;orthogonalLoop=1;jettySize=auto;html=1;" edge="1" parent="WIyWlLk6GJQsqaUBKTNV-1" source="0WDkK49skDrCXc-47FKA-74" target="0WDkK49skDrCXc-47FKA-2">
          <mxGeometry relative="1" as="geometry" />
        </mxCell>
        <mxCell id="0WDkK49skDrCXc-47FKA-74" value="i = 0" style="rounded=0;whiteSpace=wrap;html=1;" vertex="1" parent="WIyWlLk6GJQsqaUBKTNV-1">
          <mxGeometry x="160" y="270" width="120" height="60" as="geometry" />
        </mxCell>
      </root>
    </mxGraphModel>
  </diagram>
</mxfile>
